<svg width="250" height="250" viewBox="0 0 250 250" fill="none" xmlns="http://www.w3.org/2000/svg">
<path d="M115 10.3923C121.188 6.81965 128.812 6.81965 135 10.3923L219.253 59.0359C225.441 62.6086 229.253 69.2111 229.253 76.3564V173.644C229.253 180.789 225.441 187.391 219.253 190.964L135 239.608C128.812 243.18 121.188 243.18 115 239.608L30.7468 190.964C24.5588 187.391 20.7468 180.789 20.7468 173.644V76.3564C20.7468 69.2111 24.5588 62.6086 30.7468 59.0359L115 10.3923Z" fill="#132527" stroke="#0D0D0D" stroke-width="8"/>
<path d="M160 116.95V110C160 103 150.125 102.5 146 102.5C144.625 102.5 143.5 103.625 143.5 105C143.5 106.375 144.625 107.5 146 107.5C147.375 107.5 155 106.5 155 110V115H132.5C132.5 110.875 129.125 107.5 125 107.5C123.625 107.5 122.5 106.375 122.5 105C122.5 103.625 123.625 102.5 125 102.5C126.375 102.5 127.5 103.625 127.5 105C127.5 106.375 128.625 107.5 130 107.5C131.375 107.5 132.5 106.375 132.5 105C132.5 101.75 130.4 99 127.5 97.95V97.5C127.5 96.125 126.375 95 125 95C123.625 95 122.5 96.125 122.5 97.5V97.95C119.6 99 117.5 101.75 117.5 105C117.5 109.125 120.875 112.5 125 112.5C126.375 112.5 127.5 113.625 127.5 115H96.25C94.175 115 92.5 113.325 92.5 111.25C92.5 109.175 94.175 107.5 96.25 107.5H104.5C105.875 107.5 107 106.375 107 105C107 103.625 105.875 102.5 104.5 102.5H96.25C91.425 102.5 87.5 106.425 87.5 111.25V155C87.5 159.125 90.875 162.5 95 162.5H155C159.125 162.5 162.5 159.125 162.5 155V122.5C162.5 120.3 161.525 118.325 160 116.95ZM157.5 145H151.25C149.592 145 148.003 144.342 146.831 143.169C145.658 141.997 145 140.408 145 138.75C145 137.092 145.658 135.503 146.831 134.331C148.003 133.158 149.592 132.5 151.25 132.5H157.5V145Z" fill="#25BCD0"/>
<path d="M105.5 117C106.163 117 106.799 116.737 107.268 116.268C107.737 115.799 108 115.163 108 114.5C108 104.85 109 92.5 125 92.5C140.5 92.5 143 104.85 143 114.5C143 115.163 143.263 115.799 143.732 116.268C144.201 116.737 144.837 117 145.5 117C146.163 117 146.799 116.737 147.268 116.268C147.737 115.799 148 115.163 148 114.5C148 102.095 142.732 87.5 125 87.5C107.268 87.5 103 102.095 103 114.5C103 115.163 103.263 115.799 103.732 116.268C104.201 116.737 104.837 117 105.5 117Z" fill="#25BCD0"/>
</svg>
